# xmcd
#
# Track frame offsets: 
#        150
#        17868
#        31370
#        47633
#        65287
#        92162
#        111631
#        129289
#        147668
#        167951
#        182791
#        196750
#        211980
#        228667
#        253307
#        269679
#        289492
#        303775
#        321957
#        340922
#
# Disc length: 4757 seconds
#
# Revision: 0
# Processed by: cddbd v1.5.2PL0 Copyright (c) Steve Scherf et al.
# Submitted via: ExactAudioCopy v1.0b1
#
DISCID=3e129314
DTITLE=Rita Coolidge - Rita Coolidge Nice Feelin'
DYEAR=1971
DGENRE=Blues Rock
TTITLE0=That Man Is My Weakness
TTITLE1=Second Story Window
TTITLE2=Crazy Love
TTITLE3=The Happy Song
TTITLE4=Seven Bridges Road
TTITLE5=Born Under A Bad Sign
TTITLE6=Ain't That Peculiar
TTITLE7=(I Always Called Them) Mountains
TTITLE8=Mud Island
TTITLE9=I Believe In You
TTITLE10=Family Full Of Soul
TTITLE11=You Touched Me In The Morning
TTITLE12=If You Were Mine
TTITLE13=Nice Feelin'
TTITLE14=Only You Know And I Know
TTITLE15=I'll Be Here
TTITLE16=Better Days
TTITLE17=Lay My Burden Down
TTITLE18=Most Likely You Go Your Way (And I'll Go Mine)
TTITLE19=Journey Through The Past
EXTD=
EXTT0=
EXTT1=
EXTT2=
EXTT3=
EXTT4=
EXTT5=
EXTT6=
EXTT7=
EXTT8=
EXTT9=
EXTT10=
EXTT11=
EXTT12=
EXTT13=
EXTT14=
EXTT15=
EXTT16=
EXTT17=
EXTT18=
EXTT19=
PLAYORDER=
